<svg width="300" height="60" viewBox="0 0 818 216" fill="none" xmlns="http://www.w3.org/2000/svg">
<path d="M56.5722 109.735C37.6172 149.507 25.5921 171.085 0 205H4.2696C29.0256 173.672 39.9253 153.857 56.5722 116.406V109.735Z" fill="url(#paint0_linear)"/>
<path d="M42.696 79.3136H21.348C34.9352 87.1157 42.5824 89.0706 56.3054 85.718L42.696 79.3136Z" fill="#353724"/>
<path d="M56.5722 87.0523C53.922 109.295 56.533 119.952 62.7098 138.287C63.4522 119.968 64.7124 109.774 75.7854 92.3893L56.5722 87.0523Z" fill="#353724"/>
<path d="M107.995 83.06C110.963 105.274 108.359 115.958 102.129 134.355C101.18 116.044 99.7722 105.863 88.1128 88.5921L107.995 83.06Z" fill="#353724"/>
<path d="M32.022 79.8473C34.17 56.2084 33.6829 42.8946 28.8198 19.0055C36.1448 25.1342 40.7021 27.5269 50.4347 28.0784C52.046 19.7298 53.9413 16.1483 58.4402 11L60.575 16.8707C66.6985 14.1035 68.4006 14.5716 70.1816 16.8707C70.5352 12.3403 71.8636 11.2618 75.5186 11L77.9202 16.8707C82.8239 17.6076 84.2519 19.1671 86.1926 22.4746C95.1002 21.0236 97.9577 19.7801 101.136 16.8707C110.412 23.6585 112.498 27.7258 112.611 35.2834C109.648 46.5933 106.616 52.0823 106.74 56.0977C110.866 56.9835 113.532 57.0118 119.015 56.0977C114.052 66.2922 113.781 72.0205 115.546 82.249L112.611 79.8473C108.671 89.4744 105.102 91.3448 97.1334 90.5213C82.5246 94.7034 74.1264 95.3175 58.4402 90.5213C51.4736 83.8372 47.0609 80.4702 32.022 79.8473Z" fill="url(#paint1_linear)"/>
<path d="M275.408 56.912V158H250.784V97.376L228.176 158H208.304L185.552 97.232V158H160.928V56.912H190.016L218.384 126.896L246.464 56.912H275.408ZM368.859 116.528C368.859 118.832 368.716 121.232 368.428 123.728H312.7C313.084 128.72 314.668 132.56 317.452 135.248C320.332 137.84 323.836 139.136 327.964 139.136C334.108 139.136 338.38 136.544 340.78 131.36H366.988C365.644 136.64 363.196 141.392 359.644 145.616C356.188 149.84 351.82 153.152 346.54 155.552C341.26 157.952 335.356 159.152 328.828 159.152C320.956 159.152 313.948 157.472 307.804 154.112C301.66 150.752 296.86 145.952 293.404 139.712C289.948 133.472 288.22 126.176 288.22 117.824C288.22 109.472 289.9 102.176 293.26 95.936C296.716 89.696 301.516 84.896 307.66 81.536C313.804 78.176 320.86 76.496 328.828 76.496C336.604 76.496 343.516 78.128 349.564 81.392C355.612 84.656 360.316 89.312 363.676 95.36C367.132 101.408 368.859 108.464 368.859 116.528ZM343.66 110.048C343.66 105.824 342.22 102.464 339.34 99.968C336.46 97.472 332.86 96.224 328.54 96.224C324.412 96.224 320.908 97.424 318.028 99.824C315.244 102.224 313.516 105.632 312.844 110.048H343.66ZM414.538 159.152C407.53 159.152 401.29 157.952 395.818 155.552C390.346 153.152 386.026 149.888 382.858 145.76C379.69 141.536 377.914 136.832 377.53 131.648H401.866C402.154 134.432 403.45 136.688 405.754 138.416C408.058 140.144 410.89 141.008 414.25 141.008C417.322 141.008 419.674 140.432 421.306 139.28C423.034 138.032 423.898 136.448 423.898 134.528C423.898 132.224 422.698 130.544 420.298 129.488C417.898 128.336 414.01 127.088 408.634 125.744C402.874 124.4 398.074 123.008 394.234 121.568C390.394 120.032 387.082 117.68 384.298 114.512C381.514 111.248 380.122 106.88 380.122 101.408C380.122 96.8 381.37 92.624 383.866 88.88C386.458 85.04 390.202 82.016 395.098 79.808C400.09 77.6 405.994 76.496 412.81 76.496C422.89 76.496 430.81 78.992 436.57 83.984C442.426 88.976 445.786 95.6 446.65 103.856H423.898C423.514 101.072 422.266 98.864 420.154 97.232C418.138 95.6 415.45 94.784 412.09 94.784C409.21 94.784 407.002 95.36 405.466 96.512C403.93 97.568 403.162 99.056 403.162 100.976C403.162 103.28 404.362 105.008 406.762 106.16C409.258 107.312 413.098 108.464 418.282 109.616C424.234 111.152 429.082 112.688 432.826 114.224C436.57 115.664 439.834 118.064 442.618 121.424C445.498 124.688 446.986 129.104 447.082 134.672C447.082 139.376 445.738 143.6 443.05 147.344C440.458 150.992 436.666 153.872 431.674 155.984C426.778 158.096 421.066 159.152 414.538 159.152ZM494.835 159.152C487.827 159.152 481.587 157.952 476.115 155.552C470.643 153.152 466.323 149.888 463.155 145.76C459.987 141.536 458.211 136.832 457.827 131.648H482.163C482.451 134.432 483.747 136.688 486.051 138.416C488.355 140.144 491.187 141.008 494.547 141.008C497.619 141.008 499.971 140.432 501.603 139.28C503.331 138.032 504.195 136.448 504.195 134.528C504.195 132.224 502.995 130.544 500.595 129.488C498.195 128.336 494.307 127.088 488.931 125.744C483.171 124.4 478.371 123.008 474.531 121.568C470.691 120.032 467.379 117.68 464.595 114.512C461.811 111.248 460.419 106.88 460.419 101.408C460.419 96.8 461.667 92.624 464.163 88.88C466.755 85.04 470.499 82.016 475.395 79.808C480.387 77.6 486.291 76.496 493.107 76.496C503.187 76.496 511.107 78.992 516.867 83.984C522.723 88.976 526.083 95.6 526.947 103.856H504.195C503.811 101.072 502.563 98.864 500.451 97.232C498.435 95.6 495.747 94.784 492.387 94.784C489.507 94.784 487.299 95.36 485.763 96.512C484.227 97.568 483.459 99.056 483.459 100.976C483.459 103.28 484.659 105.008 487.059 106.16C489.555 107.312 493.395 108.464 498.579 109.616C504.531 111.152 509.379 112.688 513.123 114.224C516.867 115.664 520.131 118.064 522.915 121.424C525.795 124.688 527.283 129.104 527.379 134.672C527.379 139.376 526.035 143.6 523.347 147.344C520.755 150.992 516.963 153.872 511.971 155.984C507.075 158.096 501.363 159.152 494.835 159.152ZM537.548 117.68C537.548 109.424 539.084 102.176 542.156 95.936C545.324 89.696 549.596 84.896 554.972 81.536C560.348 78.176 566.348 76.496 572.972 76.496C578.636 76.496 583.58 77.648 587.804 79.952C592.124 82.256 595.436 85.28 597.74 89.024V77.648H622.364V158H597.74V146.624C595.34 150.368 591.98 153.392 587.66 155.696C583.436 158 578.492 159.152 572.828 159.152C566.3 159.152 560.348 157.472 554.972 154.112C549.596 150.656 545.324 145.808 542.156 139.568C539.084 133.232 537.548 125.936 537.548 117.68ZM597.74 117.824C597.74 111.68 596.012 106.832 592.556 103.28C589.196 99.728 585.068 97.952 580.172 97.952C575.276 97.952 571.1 99.728 567.644 103.28C564.284 106.736 562.604 111.536 562.604 117.68C562.604 123.824 564.284 128.72 567.644 132.368C571.1 135.92 575.276 137.696 580.172 137.696C585.068 137.696 589.196 135.92 592.556 132.368C596.012 128.816 597.74 123.968 597.74 117.824ZM670.706 76.496C676.37 76.496 681.314 77.648 685.538 79.952C689.858 82.256 693.17 85.28 695.474 89.024V77.648H720.098V157.856C720.098 165.248 718.61 171.92 715.634 177.872C712.754 183.92 708.29 188.72 702.242 192.272C696.29 195.824 688.85 197.6 679.922 197.6C668.018 197.6 658.37 194.768 650.978 189.104C643.586 183.536 639.362 175.952 638.306 166.352H662.642C663.41 169.424 665.234 171.824 668.114 173.552C670.994 175.376 674.546 176.288 678.77 176.288C683.858 176.288 687.89 174.8 690.866 171.824C693.938 168.944 695.474 164.288 695.474 157.856V146.48C693.074 150.224 689.762 153.296 685.538 155.696C681.314 158 676.37 159.152 670.706 159.152C664.082 159.152 658.082 157.472 652.706 154.112C647.33 150.656 643.058 145.808 639.89 139.568C636.818 133.232 635.282 125.936 635.282 117.68C635.282 109.424 636.818 102.176 639.89 95.936C643.058 89.696 647.33 84.896 652.706 81.536C658.082 78.176 664.082 76.496 670.706 76.496ZM695.474 117.824C695.474 111.68 693.746 106.832 690.29 103.28C686.93 99.728 682.802 97.952 677.906 97.952C673.01 97.952 668.834 99.728 665.378 103.28C662.018 106.736 660.338 111.536 660.338 117.68C660.338 123.824 662.018 128.72 665.378 132.368C668.834 135.92 673.01 137.696 677.906 137.696C682.802 137.696 686.93 135.92 690.29 132.368C693.746 128.816 695.474 123.968 695.474 117.824ZM813.656 116.528C813.656 118.832 813.512 121.232 813.224 123.728H757.496C757.88 128.72 759.464 132.56 762.248 135.248C765.128 137.84 768.632 139.136 772.76 139.136C778.904 139.136 783.176 136.544 785.576 131.36H811.784C810.44 136.64 807.992 141.392 804.44 145.616C800.984 149.84 796.616 153.152 791.336 155.552C786.056 157.952 780.152 159.152 773.624 159.152C765.752 159.152 758.744 157.472 752.6 154.112C746.456 150.752 741.656 145.952 738.2 139.712C734.744 133.472 733.016 126.176 733.016 117.824C733.016 109.472 734.696 102.176 738.056 95.936C741.512 89.696 746.312 84.896 752.456 81.536C758.6 78.176 765.656 76.496 773.624 76.496C781.4 76.496 788.312 78.128 794.36 81.392C800.408 84.656 805.112 89.312 808.472 95.36C811.928 101.408 813.656 108.464 813.656 116.528ZM788.456 110.048C788.456 105.824 787.016 102.464 784.136 99.968C781.256 97.472 777.656 96.224 773.336 96.224C769.208 96.224 765.704 97.424 762.824 99.824C760.04 102.224 758.312 105.632 757.64 110.048H788.456Z" fill="#F8F8F2"/>
<defs>
<linearGradient id="paint0_linear" x1="56.3054" y1="116.673" x2="-0.266852" y2="210.337" gradientUnits="userSpaceOnUse">
<stop stop-color="#3E5D20"/>
<stop offset="1" stop-color="#4C6A2E" stop-opacity="0.6"/>
</linearGradient>
<linearGradient id="paint1_linear" x1="28.8198" y1="21.4072" x2="107.007" y2="84.9175" gradientUnits="userSpaceOnUse">
<stop stop-color="#FFD369"/>
<stop offset="1" stop-color="#FFD369"/>
</linearGradient>
</defs>
</svg>
