<svg width="38" height="31" viewBox="0 0 38 31"  xmlns="http://www.w3.org/2000/svg">
<path d="M18.5503 30.3574C14.585 30.3574 10.9939 28.977 8.67865 27.8187C8.51857 27.7385 8.45318 27.543 8.53372 27.3819C8.61425 27.2215 8.80906 27.1561 8.97015 27.2367C12.1532 28.8294 15.5556 29.7066 18.5503 29.7066C28.4195 29.7066 36.4488 23.1892 36.4488 15.1785C36.4488 7.16785 28.4195 0.650774 18.5503 0.650774C8.68032 0.650774 0.651113 7.16785 0.651113 15.1785C0.651113 17.4695 2.06352 19.4369 3.42975 21.3397C3.60095 21.579 3.77181 21.8169 3.93962 22.0548C4.04308 22.2018 4.00769 22.405 3.86109 22.5085C3.71452 22.6119 3.51096 22.5769 3.4075 22.4299C3.24066 22.1933 3.07116 21.9568 2.90098 21.7195C1.47476 19.7328 0 17.6791 0 15.1785C0 11.1115 1.93882 7.29186 5.45817 4.42358C8.95835 1.57115 13.6074 0 18.5503 0C23.4925 0 28.1415 1.57115 31.6413 4.42358C35.1614 7.29186 37.0992 11.1115 37.0992 15.1785C37.0992 19.2459 35.1614 23.0652 31.6413 25.9338C28.1415 28.7866 23.4925 30.3574 18.5503 30.3574Z" />
<path d="M1.744 29.7438C1.65842 29.7438 1.57549 29.71 1.51349 29.648C1.43126 29.5658 1.39925 29.4462 1.42959 29.3336L3.35928 22.158C3.40578 21.9848 3.58372 21.878 3.75829 21.9245C3.93116 21.9703 4.0353 22.1445 3.99052 22.3178C3.98981 22.3184 3.98812 22.3262 3.98812 22.3269L2.20401 28.9585L8.74028 27.2135C8.91417 27.167 9.09213 27.2704 9.13864 27.444C9.18546 27.6175 9.08203 27.7958 8.90811 27.8424L1.8279 29.7326C1.79996 29.74 1.77197 29.7438 1.744 29.7438Z" />
<path d="M26.205 13.6415C25.3578 13.6415 24.6679 14.3313 24.6679 15.1786C24.6679 16.0262 25.3578 16.716 26.205 16.716C27.0526 16.716 27.7424 16.0262 27.7424 15.1786C27.7424 14.3313 27.0526 13.6415 26.205 13.6415ZM26.205 17.3668C24.9985 17.3668 24.0168 16.3851 24.0168 15.1786C24.0168 13.9724 24.9985 12.9907 26.205 12.9907C27.4111 12.9907 28.3932 13.9724 28.3932 15.1786C28.3932 16.3851 27.4111 17.3668 26.205 17.3668Z" />
<path d="M18.5502 13.6415C17.702 13.6415 17.0132 14.3313 17.0132 15.1786C17.0132 16.0262 17.702 16.716 18.5502 16.716C19.3978 16.716 20.0867 16.0262 20.0867 15.1786C20.0867 14.3313 19.3978 13.6415 18.5502 13.6415ZM18.5502 17.3668C17.3434 17.3668 16.3621 16.3851 16.3621 15.1786C16.3621 13.9724 17.3434 12.9907 18.5502 12.9907C19.7561 12.9907 20.7374 13.9724 20.7374 15.1786C20.7374 16.3851 19.7561 17.3668 18.5502 17.3668Z" />
<path d="M10.8948 13.6415C10.0472 13.6415 9.35738 14.3313 9.35738 15.1786C9.35738 16.0262 10.0472 16.716 10.8948 16.716C11.742 16.716 12.4319 16.0262 12.4319 15.1786C12.4319 14.3313 11.742 13.6415 10.8948 13.6415ZM10.8948 17.3668C9.688 17.3668 8.7066 16.3851 8.7066 15.1786C8.7066 13.9724 9.688 12.9907 10.8948 12.9907C12.1013 12.9907 13.0827 13.9724 13.0827 15.1786C13.0827 16.3851 12.1013 17.3668 10.8948 17.3668Z" />
</svg>